<?xml version="1.0" encoding="UTF-8" standalone="no"?>
<!-- Generator: Adobe Illustrator 16.0.0, SVG Export Plug-In . SVG Version: 6.00 Build 0)  -->

<svg
   xmlns:dc="http://purl.org/dc/elements/1.1/"
   xmlns:cc="http://creativecommons.org/ns#"
   xmlns:rdf="http://www.w3.org/1999/02/22-rdf-syntax-ns#"
   xmlns:svg="http://www.w3.org/2000/svg"
   xmlns="http://www.w3.org/2000/svg"
   xmlns:sodipodi="http://sodipodi.sourceforge.net/DTD/sodipodi-0.dtd"
   xmlns:inkscape="http://www.inkscape.org/namespaces/inkscape"
   version="1.1"
   id="Capa_1"
   x="0px"
   y="0px"
   width="456.828px"
   height="456.828px"
   viewBox="0 0 456.828 456.828"
   style="enable-background:new 0 0 456.828 456.828;"
   xml:space="preserve"
   sodipodi:docname="bug.svg"
   inkscape:version="0.92.3 (2405546, 2018-03-11)"><metadata
   id="metadata45"><rdf:RDF><cc:Work
       rdf:about=""><dc:format>image/svg+xml</dc:format><dc:type
         rdf:resource="http://purl.org/dc/dcmitype/StillImage" /></cc:Work></rdf:RDF></metadata><defs
   id="defs43" /><sodipodi:namedview
   pagecolor="#ffffff"
   bordercolor="#666666"
   borderopacity="1"
   objecttolerance="10"
   gridtolerance="10"
   guidetolerance="10"
   inkscape:pageopacity="0"
   inkscape:pageshadow="2"
   inkscape:window-width="1920"
   inkscape:window-height="1053"
   id="namedview41"
   showgrid="false"
   inkscape:zoom="0.51660581"
   inkscape:cx="228.414"
   inkscape:cy="228.414"
   inkscape:window-x="0"
   inkscape:window-y="0"
   inkscape:window-maximized="1"
   inkscape:current-layer="Capa_1" />
<g
   id="g8"
   style="fill:#f2f2f2">
	<g
   id="g6"
   style="fill:#f2f2f2">
		<path
   d="m 451.383,247.54 c -3.606,-3.617 -7.898,-5.427 -12.847,-5.427 h -63.953 v -83.939 l 49.396,-49.394 c 3.614,-3.615 5.428,-7.898 5.428,-12.85 0,-4.947 -1.813,-9.229 -5.428,-12.847 -3.614,-3.616 -7.898,-5.424 -12.847,-5.424 -4.949,0 -9.233,1.809 -12.847,5.424 l -49.396,49.394 H 107.923 L 58.529,83.083 c -3.617,-3.616 -7.898,-5.424 -12.847,-5.424 -4.952,0 -9.233,1.809 -12.85,5.424 -3.617,3.617 -5.424,7.9 -5.424,12.847 0,4.952 1.807,9.235 5.424,12.85 l 49.394,49.394 v 83.939 H 18.273 c -4.949,0 -9.231,1.81 -12.847,5.427 C 1.809,251.154 0,255.442 0,260.387 c 0,4.949 1.809,9.237 5.426,12.848 3.616,3.617 7.898,5.431 12.847,5.431 h 63.953 c 0,30.447 5.522,56.53 16.56,78.224 l -57.67,64.809 c -3.237,3.81 -4.712,8.234 -4.425,13.275 0.284,5.037 2.235,9.273 5.852,12.703 3.617,3.045 7.707,4.571 12.275,4.571 5.33,0 9.897,-1.991 13.706,-5.995 l 52.246,-59.102 4.285,4.004 c 2.664,2.479 6.801,5.564 12.419,9.274 5.617,3.71 11.897,7.423 18.842,11.143 6.95,3.71 15.23,6.852 24.84,9.418 9.614,2.573 19.273,3.86 28.98,3.86 V 169.034 h 36.547 V 424.85 c 9.134,0 18.363,-1.239 27.688,-3.717 9.328,-2.471 17.135,-5.232 23.418,-8.278 6.275,-3.049 12.47,-6.519 18.555,-10.42 6.092,-3.901 10.089,-6.612 11.991,-8.138 1.909,-1.526 3.333,-2.762 4.284,-3.71 l 56.534,56.243 c 3.433,3.617 7.707,5.424 12.847,5.424 5.141,0 9.422,-1.807 12.854,-5.424 3.607,-3.617 5.421,-7.902 5.421,-12.851 0,-4.949 -1.813,-9.232 -5.421,-12.847 l -59.388,-59.669 c 12.755,-22.651 19.13,-50.251 19.13,-82.796 h 63.953 c 4.949,0 9.236,-1.81 12.847,-5.427 3.614,-3.614 5.432,-7.898 5.432,-12.847 0,-4.948 -1.817,-9.235 -5.445,-12.853 z"
   id="path2"
   inkscape:connector-curvature="0"
   style="fill:#f2f2f2" />
		<path
   d="M 293.081,31.27 C 275.286,13.475 253.729,4.574 228.414,4.574 c -25.319,0 -46.87,8.901 -64.668,26.696 -17.795,17.797 -26.691,39.353 -26.691,64.667 h 182.716 c 0,-25.31 -8.895,-46.87 -26.69,-64.667 z"
   id="path4"
   inkscape:connector-curvature="0"
   style="fill:#f2f2f2" />
	</g>
</g>
<g
   id="g10">
</g>
<g
   id="g12">
</g>
<g
   id="g14">
</g>
<g
   id="g16">
</g>
<g
   id="g18">
</g>
<g
   id="g20">
</g>
<g
   id="g22">
</g>
<g
   id="g24">
</g>
<g
   id="g26">
</g>
<g
   id="g28">
</g>
<g
   id="g30">
</g>
<g
   id="g32">
</g>
<g
   id="g34">
</g>
<g
   id="g36">
</g>
<g
   id="g38">
</g>
</svg>