<?xml version="1.0" encoding="UTF-8" standalone="no"?>
<svg
   xmlns:dc="http://purl.org/dc/elements/1.1/"
   xmlns:cc="http://creativecommons.org/ns#"
   xmlns:rdf="http://www.w3.org/1999/02/22-rdf-syntax-ns#"
   xmlns:svg="http://www.w3.org/2000/svg"
   xmlns="http://www.w3.org/2000/svg"
   id="svg8"
   version="1.1"
   viewBox="0 0 135.46931 135.46667"
   height="135.46667mm"
   width="135.46931mm">
  <defs
     id="defs2" />
  <metadata
     id="metadata5">
    <rdf:RDF>
      <cc:Work
         rdf:about="">
        <dc:format>image/svg+xml</dc:format>
        <dc:type
           rdf:resource="http://purl.org/dc/dcmitype/StillImage" />
        <dc:title></dc:title>
      </cc:Work>
    </rdf:RDF>
  </metadata>
  <g
     transform="translate(122.16323,-81.099998)"
     id="layer1">
    <path
       id="path3818"
       d="m 3.6530841,89.373247 3.7417725,4.260098 3.6164834,4.294154 c 4.942522,5.989821 0.994732,8.791411 -2.7470415,11.731371 l -29.3996475,24.85607 5.946747,7.41673 c 4.209495,5.47903 -7.080474,15.38002 -11.826678,9.95579 l -9.354433,-10.69078 -25.925143,21.11429 -24.135319,19.37033 c -5.214303,5.01048 -10.793145,1.73053 -12.257803,0.21862 l -4.499112,3.6635 v 0 l -3.20724,0.26727 -2.13815,-1.60362 v -3.74177 l 5.25229,-4.46531 c -1.44567,-2.22061 -4.07509,-6.36446 0.89491,-10.50179 l 51.048475,-42.49585 c 0,0 1.603616,1.87088 0,0 -1.603618,-1.87089 -9.621702,-12.56167 -9.621702,-12.56167 -2.672695,-5.61266 3.396172,-13.51515 11.759857,-9.6217 l 7.472804,9.06567 29.210657,-23.692489 c 4.5357145,-3.49628 8.0698153,-4.780804 12.49691231,-0.888244 z"
       style="fill:#363636;fill-opacity:1;stroke:none;stroke-width:0.26458332px;stroke-linecap:butt;stroke-linejoin:miter;stroke-opacity:1" />
    <path
       id="path4625"
       d="m -100.1469,210.82039 c 0.10987,-11.78665 -8.65285,-23.11882 -8.65285,-23.11882 0,0 -8.80862,12.2117 -8.83046,23.09587 0.46772,3.77519 4.28687,6.06992 8.49636,6.06992 4.37654,0.13363 8.48582,-1.70384 8.98695,-6.04697 z"
       style="fill:#393939;fill-opacity:1;stroke:none;stroke-width:0.26458332px;stroke-linecap:butt;stroke-linejoin:miter;stroke-opacity:1" />
  </g>
</svg>
